<svg xmlns="http://www.w3.org/2000/svg" viewBox="0 0 64 64">
  <defs>
    <linearGradient id="blade" x1="0%" y1="0%" x2="100%" y2="100%">
      <stop offset="0%" style="stop-color:#f9a825"/>
      <stop offset="50%" style="stop-color:#ffd54f"/>
      <stop offset="100%" style="stop-color:#f9a825"/>
    </linearGradient>
    <linearGradient id="handle" x1="0%" y1="0%" x2="100%" y2="100%">
      <stop offset="0%" style="stop-color:#16a34a"/>
      <stop offset="100%" style="stop-color:#15803d"/>
    </linearGradient>
  </defs>

  <!-- Background circle -->
  <circle cx="32" cy="32" r="30" fill="#16a34a"/>
  <circle cx="32" cy="32" r="27" fill="#f0fdf4"/>

  <!-- Left sword -->
  <g transform="rotate(-45 32 32)">
    <!-- Blade -->
    <path d="M32 8 L35 12 L35 38 L32 42 L29 38 L29 12 Z" fill="url(#blade)" stroke="#b45309" stroke-width="1"/>
    <!-- Guard -->
    <rect x="24" y="38" width="16" height="4" rx="1" fill="url(#handle)"/>
    <!-- Handle -->
    <rect x="29" y="42" width="6" height="12" rx="1" fill="#7c2d12"/>
    <!-- Pommel -->
    <circle cx="32" cy="56" r="3" fill="url(#handle)"/>
  </g>

  <!-- Right sword -->
  <g transform="rotate(45 32 32)">
    <!-- Blade -->
    <path d="M32 8 L35 12 L35 38 L32 42 L29 38 L29 12 Z" fill="url(#blade)" stroke="#b45309" stroke-width="1"/>
    <!-- Guard -->
    <rect x="24" y="38" width="16" height="4" rx="1" fill="url(#handle)"/>
    <!-- Handle -->
    <rect x="29" y="42" width="6" height="12" rx="1" fill="#7c2d12"/>
    <!-- Pommel -->
    <circle cx="32" cy="56" r="3" fill="url(#handle)"/>
  </g>
</svg>
